<?xml version="1.0"?>
<svg xmlns="http://www.w3.org/2000/svg" viewBox="0 0 128 128">
  <circle cx="64" cy="64" r="62" fill="#37474f"/>
  <path d="M44.32 40.24L48.08 30.80Q51.20 31.20 55.64 31.96Q60.08 32.72 65.08 33.68Q70.08 34.64 75.08 35.80Q80.08 36.96 84.36 38.08Q88.64 39.20 91.68 40.24L91.68 40.24L87.60 50.24Q84.80 49.20 80.64 48.04Q76.48 46.88 71.60 45.68Q66.72 44.48 61.76 43.44Q56.80 42.40 52.28 41.52Q47.76 40.64 44.32 40.24L44.32 40.24ZM40.72 62L44.40 52.32Q48.72 53.04 54.32 54.16Q59.92 55.28 65.84 56.60Q71.76 57.92 77.12 59.32Q82.48 60.72 86.24 62.08L86.24 62.08L82.32 72.08Q78.88 70.72 73.64 69.28Q68.40 67.84 62.52 66.40Q56.64 64.96 50.88 63.80Q45.12 62.64 40.72 62L40.72 62ZM36.32 85.28L40.32 75.20Q44.40 75.84 49.60 76.88Q54.80 77.92 60.44 79.20Q66.08 80.48 71.52 81.84Q76.96 83.20 81.64 84.56Q86.32 85.92 89.60 87.20L89.60 87.20L85.20 97.20Q82 95.84 77.28 94.44Q72.56 93.04 67.04 91.64Q61.52 90.24 55.92 89Q50.32 87.76 45.24 86.80Q40.16 85.84 36.32 85.28L36.32 85.28Z" fill="#f5f5f6"/>
</svg>
